<svg id="visual" viewBox="0 0 960 540" width="960" height="540" xmlns="http://www.w3.org/2000/svg" xmlns:xlink="http://www.w3.org/1999/xlink" version="1.1"><rect x="0" y="0" width="960" height="540" fill="#e5e5db"></rect><defs><linearGradient id="grad1_0" x1="43.8%" y1="0%" x2="100%" y2="100%"><stop offset="14.444444444444446%" stop-color="#ffffff" stop-opacity="1"></stop><stop offset="85.55555555555554%" stop-color="#ffffff" stop-opacity="1"></stop></linearGradient></defs><defs><linearGradient id="grad1_1" x1="43.8%" y1="0%" x2="100%" y2="100%"><stop offset="14.444444444444446%" stop-color="#ffffff" stop-opacity="1"></stop><stop offset="85.55555555555554%" stop-color="#fbfbf9" stop-opacity="1"></stop></linearGradient></defs><defs><linearGradient id="grad1_2" x1="43.8%" y1="0%" x2="100%" y2="100%"><stop offset="14.444444444444446%" stop-color="#f6f6f3" stop-opacity="1"></stop><stop offset="85.55555555555554%" stop-color="#fbfbf9" stop-opacity="1"></stop></linearGradient></defs><defs><linearGradient id="grad1_3" x1="43.8%" y1="0%" x2="100%" y2="100%"><stop offset="14.444444444444446%" stop-color="#f6f6f3" stop-opacity="1"></stop><stop offset="85.55555555555554%" stop-color="#f2f2ed" stop-opacity="1"></stop></linearGradient></defs><defs><linearGradient id="grad1_4" x1="43.8%" y1="0%" x2="100%" y2="100%"><stop offset="14.444444444444446%" stop-color="#eeeee7" stop-opacity="1"></stop><stop offset="85.55555555555554%" stop-color="#f2f2ed" stop-opacity="1"></stop></linearGradient></defs><defs><linearGradient id="grad1_5" x1="43.8%" y1="0%" x2="100%" y2="100%"><stop offset="14.444444444444446%" stop-color="#eeeee7" stop-opacity="1"></stop><stop offset="85.55555555555554%" stop-color="#e9e9e1" stop-opacity="1"></stop></linearGradient></defs><defs><linearGradient id="grad1_6" x1="43.8%" y1="0%" x2="100%" y2="100%"><stop offset="14.444444444444446%" stop-color="#e5e5db" stop-opacity="1"></stop><stop offset="85.55555555555554%" stop-color="#e9e9e1" stop-opacity="1"></stop></linearGradient></defs><defs><linearGradient id="grad2_0" x1="0%" y1="0%" x2="56.3%" y2="100%"><stop offset="14.444444444444446%" stop-color="#ffffff" stop-opacity="1"></stop><stop offset="85.55555555555554%" stop-color="#ffffff" stop-opacity="1"></stop></linearGradient></defs><defs><linearGradient id="grad2_1" x1="0%" y1="0%" x2="56.3%" y2="100%"><stop offset="14.444444444444446%" stop-color="#fbfbf9" stop-opacity="1"></stop><stop offset="85.55555555555554%" stop-color="#ffffff" stop-opacity="1"></stop></linearGradient></defs><defs><linearGradient id="grad2_2" x1="0%" y1="0%" x2="56.3%" y2="100%"><stop offset="14.444444444444446%" stop-color="#fbfbf9" stop-opacity="1"></stop><stop offset="85.55555555555554%" stop-color="#f6f6f3" stop-opacity="1"></stop></linearGradient></defs><defs><linearGradient id="grad2_3" x1="0%" y1="0%" x2="56.3%" y2="100%"><stop offset="14.444444444444446%" stop-color="#f2f2ed" stop-opacity="1"></stop><stop offset="85.55555555555554%" stop-color="#f6f6f3" stop-opacity="1"></stop></linearGradient></defs><defs><linearGradient id="grad2_4" x1="0%" y1="0%" x2="56.3%" y2="100%"><stop offset="14.444444444444446%" stop-color="#f2f2ed" stop-opacity="1"></stop><stop offset="85.55555555555554%" stop-color="#eeeee7" stop-opacity="1"></stop></linearGradient></defs><defs><linearGradient id="grad2_5" x1="0%" y1="0%" x2="56.3%" y2="100%"><stop offset="14.444444444444446%" stop-color="#e9e9e1" stop-opacity="1"></stop><stop offset="85.55555555555554%" stop-color="#eeeee7" stop-opacity="1"></stop></linearGradient></defs><defs><linearGradient id="grad2_6" x1="0%" y1="0%" x2="56.3%" y2="100%"><stop offset="14.444444444444446%" stop-color="#e9e9e1" stop-opacity="1"></stop><stop offset="85.55555555555554%" stop-color="#e5e5db" stop-opacity="1"></stop></linearGradient></defs><g transform="translate(960, 0)"><path d="M0 486C-70.3 486.5 -140.7 487.1 -186 449C-231.3 410.9 -251.7 334.3 -282.8 282.8C-314 231.4 -356.1 205.2 -391.7 162.3C-427.4 119.3 -456.7 59.7 -486 0L0 0Z" fill="#e7e7de"></path><path d="M0 416.6C-60.3 417 -120.6 417.5 -159.4 384.9C-198.3 352.2 -215.7 286.5 -242.4 242.4C-269.2 198.3 -305.2 175.9 -335.8 139.1C-366.3 102.3 -391.5 51.1 -416.6 0L0 0Z" fill="#ebebe4"></path><path d="M0 347.1C-50.2 347.5 -100.5 347.9 -132.8 320.7C-165.2 293.5 -179.8 238.8 -202 202C-224.3 165.3 -254.3 146.6 -279.8 115.9C-305.3 85.2 -326.2 42.6 -347.1 0L0 0Z" fill="#f0f0ea"></path><path d="M0 277.7C-40.2 278 -80.4 278.3 -106.3 256.6C-132.2 234.8 -143.8 191 -161.6 161.6C-179.4 132.2 -203.5 117.3 -223.8 92.7C-244.2 68.2 -261 34.1 -277.7 0L0 0Z" fill="#f4f4f0"></path><path d="M0 208.3C-30.1 208.5 -60.3 208.7 -79.7 192.4C-99.1 176.1 -107.9 143.3 -121.2 121.2C-134.6 99.2 -152.6 87.9 -167.9 69.5C-183.2 51.1 -195.7 25.6 -208.3 0L0 0Z" fill="#f8f8f6"></path><path d="M0 138.9C-20.1 139 -40.2 139.2 -53.1 128.3C-66.1 117.4 -71.9 95.5 -80.8 80.8C-89.7 66.1 -101.7 58.6 -111.9 46.4C-122.1 34.1 -130.5 17 -138.9 0L0 0Z" fill="#fdfdfc"></path><path d="M0 69.4C-10 69.5 -20.1 69.6 -26.6 64.1C-33 58.7 -36 47.8 -40.4 40.4C-44.9 33.1 -50.9 29.3 -56 23.2C-61.1 17 -65.2 8.5 -69.4 0L0 0Z" fill="#ffffff"></path></g><g transform="translate(0, 540)"><path d="M0 -486C67.9 -478.5 135.8 -471.1 180.2 -435.1C224.7 -399.2 245.8 -334.8 292.7 -292.7C339.7 -250.7 412.5 -231 449 -186C485.5 -140.9 485.8 -70.5 486 0L0 0Z" fill="#e7e7de"></path><path d="M0 -416.6C58.2 -410.2 116.4 -403.8 154.5 -373C192.6 -342.2 210.7 -287 250.9 -250.9C291.2 -214.9 353.6 -198 384.9 -159.4C416.2 -120.8 416.4 -60.4 416.6 0L0 0Z" fill="#ebebe4"></path><path d="M0 -347.1C48.5 -341.8 97 -336.5 128.7 -310.8C160.5 -285.1 175.6 -239.1 209.1 -209.1C242.6 -179.1 294.6 -165 320.7 -132.8C346.8 -100.7 347 -50.3 347.1 0L0 0Z" fill="#f0f0ea"></path><path d="M0 -277.7C38.8 -273.5 77.6 -269.2 103 -248.7C128.4 -228.1 140.5 -191.3 167.3 -167.3C194.1 -143.3 235.7 -132 256.6 -106.3C277.4 -80.5 277.6 -40.3 277.7 0L0 0Z" fill="#f4f4f0"></path><path d="M0 -208.3C29.1 -205.1 58.2 -201.9 77.2 -186.5C96.3 -171.1 105.3 -143.5 125.5 -125.5C145.6 -107.4 176.8 -99 192.4 -79.7C208.1 -60.4 208.2 -30.2 208.3 0L0 0Z" fill="#f8f8f6"></path><path d="M0 -138.9C19.4 -136.7 38.8 -134.6 51.5 -124.3C64.2 -114.1 70.2 -95.7 83.6 -83.6C97.1 -71.6 117.9 -66 128.3 -53.1C138.7 -40.3 138.8 -20.1 138.9 0L0 0Z" fill="#fdfdfc"></path><path d="M0 -69.4C9.7 -68.4 19.4 -67.3 25.7 -62.2C32.1 -57 35.1 -47.8 41.8 -41.8C48.5 -35.8 58.9 -33 64.1 -26.6C69.4 -20.1 69.4 -10.1 69.4 0L0 0Z" fill="#ffffff"></path></g></svg>