<svg id="visual" viewBox="0 0 960 540" width="960" height="540" xmlns="http://www.w3.org/2000/svg" xmlns:xlink="http://www.w3.org/1999/xlink" version="1.1"><rect x="0" y="0" width="960" height="540" fill="#323131"></rect><defs><linearGradient id="grad1_0" x1="43.8%" y1="0%" x2="100%" y2="100%"><stop offset="14.444444444444446%" stop-color="#1b1b1b" stop-opacity="1"></stop><stop offset="85.55555555555554%" stop-color="#1b1b1b" stop-opacity="1"></stop></linearGradient></defs><defs><linearGradient id="grad1_1" x1="43.8%" y1="0%" x2="100%" y2="100%"><stop offset="14.444444444444446%" stop-color="#1b1b1b" stop-opacity="1"></stop><stop offset="85.55555555555554%" stop-color="#1e1e1e" stop-opacity="1"></stop></linearGradient></defs><defs><linearGradient id="grad1_2" x1="43.8%" y1="0%" x2="100%" y2="100%"><stop offset="14.444444444444446%" stop-color="#212121" stop-opacity="1"></stop><stop offset="85.55555555555554%" stop-color="#1e1e1e" stop-opacity="1"></stop></linearGradient></defs><defs><linearGradient id="grad1_3" x1="43.8%" y1="0%" x2="100%" y2="100%"><stop offset="14.444444444444446%" stop-color="#212121" stop-opacity="1"></stop><stop offset="85.55555555555554%" stop-color="#252424" stop-opacity="1"></stop></linearGradient></defs><defs><linearGradient id="grad1_4" x1="43.8%" y1="0%" x2="100%" y2="100%"><stop offset="14.444444444444446%" stop-color="#282727" stop-opacity="1"></stop><stop offset="85.55555555555554%" stop-color="#252424" stop-opacity="1"></stop></linearGradient></defs><defs><linearGradient id="grad1_5" x1="43.8%" y1="0%" x2="100%" y2="100%"><stop offset="14.444444444444446%" stop-color="#282727" stop-opacity="1"></stop><stop offset="85.55555555555554%" stop-color="#2b2b2b" stop-opacity="1"></stop></linearGradient></defs><defs><linearGradient id="grad1_6" x1="43.8%" y1="0%" x2="100%" y2="100%"><stop offset="14.444444444444446%" stop-color="#2f2e2e" stop-opacity="1"></stop><stop offset="85.55555555555554%" stop-color="#2b2b2b" stop-opacity="1"></stop></linearGradient></defs><defs><linearGradient id="grad1_7" x1="43.8%" y1="0%" x2="100%" y2="100%"><stop offset="14.444444444444446%" stop-color="#2f2e2e" stop-opacity="1"></stop><stop offset="85.55555555555554%" stop-color="#323131" stop-opacity="1"></stop></linearGradient></defs><defs><linearGradient id="grad2_0" x1="0%" y1="0%" x2="56.3%" y2="100%"><stop offset="14.444444444444446%" stop-color="#1b1b1b" stop-opacity="1"></stop><stop offset="85.55555555555554%" stop-color="#1b1b1b" stop-opacity="1"></stop></linearGradient></defs><defs><linearGradient id="grad2_1" x1="0%" y1="0%" x2="56.3%" y2="100%"><stop offset="14.444444444444446%" stop-color="#1e1e1e" stop-opacity="1"></stop><stop offset="85.55555555555554%" stop-color="#1b1b1b" stop-opacity="1"></stop></linearGradient></defs><defs><linearGradient id="grad2_2" x1="0%" y1="0%" x2="56.3%" y2="100%"><stop offset="14.444444444444446%" stop-color="#1e1e1e" stop-opacity="1"></stop><stop offset="85.55555555555554%" stop-color="#212121" stop-opacity="1"></stop></linearGradient></defs><defs><linearGradient id="grad2_3" x1="0%" y1="0%" x2="56.3%" y2="100%"><stop offset="14.444444444444446%" stop-color="#252424" stop-opacity="1"></stop><stop offset="85.55555555555554%" stop-color="#212121" stop-opacity="1"></stop></linearGradient></defs><defs><linearGradient id="grad2_4" x1="0%" y1="0%" x2="56.3%" y2="100%"><stop offset="14.444444444444446%" stop-color="#252424" stop-opacity="1"></stop><stop offset="85.55555555555554%" stop-color="#282727" stop-opacity="1"></stop></linearGradient></defs><defs><linearGradient id="grad2_5" x1="0%" y1="0%" x2="56.3%" y2="100%"><stop offset="14.444444444444446%" stop-color="#2b2b2b" stop-opacity="1"></stop><stop offset="85.55555555555554%" stop-color="#282727" stop-opacity="1"></stop></linearGradient></defs><defs><linearGradient id="grad2_6" x1="0%" y1="0%" x2="56.3%" y2="100%"><stop offset="14.444444444444446%" stop-color="#2b2b2b" stop-opacity="1"></stop><stop offset="85.55555555555554%" stop-color="#2f2e2e" stop-opacity="1"></stop></linearGradient></defs><defs><linearGradient id="grad2_7" x1="0%" y1="0%" x2="56.3%" y2="100%"><stop offset="14.444444444444446%" stop-color="#323131" stop-opacity="1"></stop><stop offset="85.55555555555554%" stop-color="#2f2e2e" stop-opacity="1"></stop></linearGradient></defs><g transform="translate(960, 0)"><path d="M0 436C-40.4 443.5 -80.8 451 -118.8 443.4C-156.8 435.7 -192.3 412.8 -224.5 388.8C-256.7 364.9 -285.4 339.9 -313.2 313.2C-341.1 286.6 -367.9 258.1 -390.6 225.5C-413.3 192.9 -431.8 156 -439.5 117.8C-447.2 79.5 -444.1 39.7 -441 0L0 0Z" fill="#302f2f"></path><path d="M0 381.5C-35.4 388.1 -70.7 394.7 -103.9 387.9C-137.2 381.2 -168.3 361.2 -196.4 340.2C-224.6 319.3 -249.8 297.5 -274.1 274.1C-298.4 250.7 -321.9 225.9 -341.8 197.3C-361.6 168.8 -377.8 136.5 -384.6 103C-391.3 69.5 -388.6 34.8 -385.9 0L0 0Z" fill="#2d2c2c"></path><path d="M0 327C-30.3 332.6 -60.6 338.3 -89.1 332.5C-117.6 326.8 -144.3 309.6 -168.4 291.6C-192.5 273.7 -214.1 255 -234.9 234.9C-255.8 214.9 -275.9 193.6 -292.9 169.1C-309.9 144.7 -323.8 117 -329.6 88.3C-335.4 59.6 -333.1 29.8 -330.7 0L0 0Z" fill="#2a2929"></path><path d="M0 272.5C-25.3 277.2 -50.5 281.9 -74.2 277.1C-98 272.3 -120.2 258 -140.3 243C-160.4 228.1 -178.4 212.5 -195.8 195.8C-213.2 179.1 -229.9 161.3 -244.1 140.9C-258.3 120.5 -269.9 97.5 -274.7 73.6C-279.5 49.7 -277.6 24.8 -275.6 0L0 0Z" fill="#262626"></path><path d="M0 218C-20.2 221.8 -40.4 225.5 -59.4 221.7C-78.4 217.8 -96.2 206.4 -112.2 194.4C-128.3 182.5 -142.7 170 -156.6 156.6C-170.5 143.3 -183.9 129.1 -195.3 112.8C-206.6 96.4 -215.9 78 -219.7 58.9C-223.6 39.7 -222.1 19.9 -220.5 0L0 0Z" fill="#232323"></path><path d="M0 163.5C-15.2 166.3 -30.3 169.1 -44.5 166.3C-58.8 163.4 -72.1 154.8 -84.2 145.8C-96.2 136.8 -107 127.5 -117.5 117.5C-127.9 107.5 -138 96.8 -146.5 84.6C-155 72.3 -161.9 58.5 -164.8 44.2C-167.7 29.8 -166.5 14.9 -165.4 0L0 0Z" fill="#202020"></path><path d="M0 109C-10.1 110.9 -20.2 112.8 -29.7 110.8C-39.2 108.9 -48.1 103.2 -56.1 97.2C-64.2 91.2 -71.4 85 -78.3 78.3C-85.3 71.6 -92 64.5 -97.6 56.4C-103.3 48.2 -107.9 39 -109.9 29.4C-111.8 19.9 -111 9.9 -110.2 0L0 0Z" fill="#1d1d1d"></path><path d="M0 54.5C-5.1 55.4 -10.1 56.4 -14.8 55.4C-19.6 54.5 -24 51.6 -28.1 48.6C-32.1 45.6 -35.7 42.5 -39.2 39.2C-42.6 35.8 -46 32.3 -48.8 28.2C-51.7 24.1 -54 19.5 -54.9 14.7C-55.9 9.9 -55.5 5 -55.1 0L0 0Z" fill="#1b1b1b"></path></g><g transform="translate(0, 540)"><path d="M0 -452C40.3 -451.2 80.5 -450.3 117.8 -439.5C155 -428.7 189.1 -407.9 223.5 -387.1C257.9 -366.3 292.4 -345.5 316.8 -316.8C341.2 -288 355.4 -251.4 377.6 -218C399.7 -184.6 429.8 -154.6 443.4 -118.8C456.9 -83 454 -41.5 451 0L0 0Z" fill="#302f2f"></path><path d="M0 -395.5C35.2 -394.8 70.5 -394 103 -384.6C135.6 -375.1 165.5 -356.9 195.6 -338.7C225.6 -320.5 255.8 -302.3 277.2 -277.2C298.5 -252 311 -219.9 330.4 -190.8C349.8 -161.6 376.1 -135.3 387.9 -103.9C399.8 -72.6 397.2 -36.3 394.6 0L0 0Z" fill="#2d2c2c"></path><path d="M0 -339C30.2 -338.4 60.4 -337.7 88.3 -329.6C116.2 -321.5 141.9 -305.9 167.6 -290.3C193.4 -274.7 219.3 -259.1 237.6 -237.6C255.9 -216 266.6 -188.5 283.2 -163.5C299.8 -138.5 322.4 -115.9 332.5 -89.1C342.7 -62.3 340.5 -31.1 338.3 0L0 0Z" fill="#2a2929"></path><path d="M0 -282.5C25.2 -282 50.3 -281.4 73.6 -274.7C96.9 -267.9 118.2 -254.9 139.7 -241.9C161.2 -229 182.7 -216 198 -198C213.2 -180 222.1 -157.1 236 -136.3C249.8 -115.4 268.6 -96.6 277.1 -74.2C285.6 -51.9 283.7 -25.9 281.9 0L0 0Z" fill="#262626"></path><path d="M0 -226C20.1 -225.6 40.3 -225.2 58.9 -219.7C77.5 -214.3 94.6 -204 111.7 -193.6C128.9 -183.2 146.2 -172.8 158.4 -158.4C170.6 -144 177.7 -125.7 188.8 -109C199.9 -92.3 214.9 -77.3 221.7 -59.4C228.5 -41.5 227 -20.8 225.5 0L0 0Z" fill="#232323"></path><path d="M0 -169.5C15.1 -169.2 30.2 -168.9 44.2 -164.8C58.1 -160.8 70.9 -153 83.8 -145.2C96.7 -137.4 109.6 -129.6 118.8 -118.8C127.9 -108 133.3 -94.3 141.6 -81.8C149.9 -69.2 161.2 -58 166.3 -44.5C171.3 -31.1 170.2 -15.6 169.1 0L0 0Z" fill="#202020"></path><path d="M0 -113C10.1 -112.8 20.1 -112.6 29.4 -109.9C38.7 -107.2 47.3 -102 55.9 -96.8C64.5 -91.6 73.1 -86.4 79.2 -79.2C85.3 -72 88.9 -62.8 94.4 -54.5C99.9 -46.2 107.5 -38.6 110.8 -29.7C114.2 -20.8 113.5 -10.4 112.8 0L0 0Z" fill="#1d1d1d"></path><path d="M0 -56.5C5 -56.4 10.1 -56.3 14.7 -54.9C19.4 -53.6 23.6 -51 27.9 -48.4C32.2 -45.8 36.5 -43.2 39.6 -39.6C42.6 -36 44.4 -31.4 47.2 -27.3C50 -23.1 53.7 -19.3 55.4 -14.8C57.1 -10.4 56.7 -5.2 56.4 0L0 0Z" fill="#1b1b1b"></path></g></svg>